<svg width="46" height="39" viewBox="0 0 46 39" fill="none" xmlns="http://www.w3.org/2000/svg">
<path fill-rule="evenodd" clip-rule="evenodd" d="M10.0248 25.0899C9.96629 19.2583 7.95061 12.3476 0 7.70121L1.2436 5.35662C10.1843 10.5816 12.5155 18.516 12.5811 25.0616C12.6137 28.3091 12.0931 31.2185 11.5687 33.3097C11.3059 34.3579 11.0403 35.2076 10.8385 35.7999C10.7376 36.0963 10.6524 36.3287 10.5913 36.49C10.5608 36.5706 10.5362 36.6335 10.5187 36.6777C10.5099 36.6998 10.5029 36.7172 10.4978 36.7299L10.4915 36.7453L10.4894 36.7503L10.4887 36.7521C10.4887 36.7521 10.4881 36.7534 9.31562 36.2191C8.1431 35.6848 8.14273 35.6856 8.14273 35.6856L8.14524 35.6795C8.14786 35.673 8.15234 35.6619 8.15857 35.6462C8.17103 35.6148 8.19044 35.5652 8.2158 35.4982C8.26653 35.3643 8.34101 35.1614 8.43122 34.8965C8.61178 34.3664 8.85465 33.5907 9.09639 32.6266C9.58119 30.6933 10.0542 28.0311 10.0248 25.0899Z" fill="#7C7C7C"/>
<path fill-rule="evenodd" clip-rule="evenodd" d="M20.4348 25.3133C24.0655 25.3133 27.0087 22.2239 27.0087 18.4129C27.0087 14.6019 24.0655 11.5125 20.4348 11.5125C16.8042 11.5125 13.8609 14.6019 13.8609 18.4129C13.8609 22.2239 16.8042 25.3133 20.4348 25.3133ZM20.4348 27.9967C25.4774 27.9967 29.5653 23.7059 29.5653 18.4129C29.5653 13.1199 25.4774 8.82903 20.4348 8.82903C15.3923 8.82903 11.3044 13.1199 11.3044 18.4129C11.3044 23.7059 15.3923 27.9967 20.4348 27.9967Z" fill="#7C7C7C"/>
<path fill-rule="evenodd" clip-rule="evenodd" d="M36.136 7.91146C31.7069 4.55207 25.9088 2.51328 20.4755 2.69466L20.4552 2.69534H20.4348C11.0556 2.69534 3.45227 10.6763 3.45227 20.5213H0.895753C0.895753 9.20138 9.63269 0.0234197 20.4145 0.0118728C26.4586 -0.184403 32.7952 2.06672 37.6333 5.73642C42.4596 9.39717 46 14.6413 46 20.5213V21.863H31.9184V19.1796H43.3664C42.8829 14.9609 40.1579 10.962 36.136 7.91146Z" fill="#7C7C7C"/>
<path fill-rule="evenodd" clip-rule="evenodd" d="M5.03499 31.7344L7.249 30.3926L9.96708 35.3343L14.6749 32.4812L15.9532 34.8052L9.03133 39L5.03499 31.7344Z" fill="#7C7C7C"/>
<path fill-rule="evenodd" clip-rule="evenodd" d="M35.7831 14.3973L37.5908 16.2948L33.7469 20.3297L37.5908 24.3645L35.7831 26.262L30.1314 20.3297L35.7831 14.3973Z" fill="#7C7C7C"/>
</svg>
